<svg xmlns="http://www.w3.org/2000/svg" width="192px" height="192px" viewBox="0 0 1920 1920" preserveAspectRatio="xMidYMid meet"><g fill="#e81b9a"><path d="M1376 913 c-14-90-10-106 42-140 26-18 72-45 102-60 30-15 57-31 58-35 2-5 21-8 41-8 58 0 81 31 81 108 0 86-17 102-151 141-59 17-120 31-136 31-27 0-31-4-37-37z"/></g><g fill="#f8f7f8"><path d="M480 984 l0-536 29-29 c26-25 37-29 86-29 31 0 65 5 76 10 11 6 91 101 179 211 145 182 160 203 160 239 0 38-2 40-42 50-24 6-63 18-87 25-69 23-96 19-130-17 l-31-33 0 323 0 322-120 0-120 0 0-536z"/><path d="M1223 1498 c-12-13-89-108-173-212-138-173-151-193-148-225 3-35 4-36 78-57 41-13 95-23 119-23 38-1 48 4 72 32 l28 32 1-327 0-328 115 0 115 0 0 215 c0 182-2 215-15 223-12 6-14 18-9 50 4 23 10 42 15 42 5 0 9 126 9 279 l0 280-26 20 c-40 31-152 30-181-1z"/></g><g fill="#44b2cd"><path d="M224 1207 c-3-8-4-45-2-82 3-59 6-70 28-87 23-16 217-78 247-78 9 0 13 20 13 65 0 61-1 65-23 65-14 0-39 17-65 45-23 25-48 45-56 45-7 0-25 9-39 20-29 23-95 27-103 7z"/></g><g fill="#7ca6c3"><path d="M252 1238 c-7-7-12-28-12-47 0-32 1-33 14-16 13 18 14 18 41-3 15-12 33-22 40-22 6 0 40-27 73-60 64-62 82-72 82-44 0 8 5 12 10 9 6-3 10 4 10 17-1 15-15 34-43 55-23 17-64 52-92 77-52 47-97 60-123 34z"/></g><g fill="#9aa0bf"><path d="M270 1224 c0-21 3-24 13-16 10 8 23 2 54-27 61-55 125-106 151-120 22-12 22-11 22 50 l0 62-30-6 c-26-6-34-1-67 38-35 43-40 45-90 45-51 0-53-1-53-26z"/><path d="M1190 605 l0-215 35 0 c24 0 35 5 35 15 0 8-7 15-15 15-13 0-15 29-15 200 0 193-1 200-20 200-19 0-20-7-20-215z"/></g><g fill="#b39bbc"><path d="M320 1235 c0-8 5-15 10-15 6 0 35-25 65-55 59-61 98-73 108-33 5 17-2 29-28 51-19 16-35 34-35 42 0 15-31 25-82 25-27 0-38-4-38-15z"/></g><g fill="#ab8ca6"><path d="M1401 1158 c1-161 4-280 6-265 3 20 9 27 19 23 12-5 14 35 14 264 0 263 0 270-20 270-20 0-20-6-19-292z"/><path d="M690 1025 l0-125 40 0 c39 0 40 1 40 33 0 18-4 37-9 43-12 13-31 97-31 138 0 29-4 36-20 36-19 0-20-7-20-125z"/><path d="M1208 1127 c-15-22-18-51-18-197 0-142 2-170 15-170 21 0 26 47 23 230-3 160-3 164-20 137z"/></g><g fill="#cc92b4"><path d="M380 1216 c29-11 31-14 15-18-18-4-18-6 5-16 14-6 40-24 59-42 18-17 36-29 39-26 3 3 7 28 10 54 4 45 2 50-19 55-13 4-51 6-84 6 l-60-1 35-12z"/><path d="M704 1033 c3-10 8-31 12-48 4-16 12-36 18-44 9-12 6-13-16-7-50 12-24-27 33-51 22-9 29-8 42 8 13 15 22 17 42 9 23-9 25-7 25 18 0 19-11 36-37 57-20 17-48 40-60 53-29 27-67 30-59 5z"/></g><g fill="#fa81ab"><path d="M700 1071 c0-41 9-53 100-135 44-39 59-46 138-66 37-9 42-14 37-31-6-19-3-20 42-17 48 3 48 3 51 40 4 45-24 78-65 78-22 0-35 10-58 45-28 41-68 65-111 65-5 0-23 14-39 30-21 22-38 30-62 30-32 0-33-2-33-39z"/></g><g fill="#f6608d"><path d="M694 1128 c3-13 6-41 7-63 1-32 2-35 8-16 10 35 23 35 56 1 16-16 34-30 39-30 43 0 83-24 111-65 23-35 36-45 58-45 29 0 72-34 62-50-4-6-15-10-26-10-12 0-19-7-19-18 0-15 17-23 83-41 45-12 97-21 115-21 l32 0 0 69 0 69-39 15 c-45 18-107 58-136 87-12 11-41 26-65 33-33 10-45 18-45 32 0 16-17 25-95 47-52 15-108 28-124 28-25 0-28-3-22-22z"/></g><g fill="#ef3c72"><path d="M992 1000 c45-41 136-106 153-109 32-5 46-15 51-39 3-15 7-33 10-39 2-8-5-13-16-13-13 0-20-7-20-20 0-15 7-20 25-20 l26 0-3 126-3 126-39 13 c-35 12-41 12-52-3-11-15-16-15-73 1-99 28-110 24-59-23z"/><path d="M1410 803 c0-15 10-49 22-75 20-40 29-48 65-57 23-6 65-11 92-11 48 0 51 2 51 26 0 16-4 23-11 18-6-3-14-3-18 2-3 5-35 24-71 43-36 18-80 44-97 58 l-33 24 0-28z"/></g><g fill="#bf577b"><path d="M1400 625 c0-176-2-205-15-205-8 0-15-7-15-15 0-10 11-15 35-15 l35 0 0 150 0 150 35 0 c19 0 35 5 35 10 0 6-7 10-15 10-8 0-15 6-15 13 0 18-58 107-70 107-6 0-10-75-10-205z"/></g><g fill="#252023"><path d="M232 1571 c-18-22-32-42-32-45 0-11 56-6 68 6 14 14 17 78 4 78-5 0-23-18-40-39z"/><path d="M636 1545 c-10-10-35-15-80-15 l-66 0 0-35 c0-19 5-35 10-35 6 0 10 7 10 15 0 12 17 15 90 15 l90 0 0-185 c0-178 1-185 20-185 19 0 20 7 20 164 0 99 4 167 10 171 6 3 10 24 10 45 0 29-5 42-19 50-29 15-77 12-95-5z"/><path d="M1512 950 c-12-11-26-20-32-20-5 0-10-6-10-14 0-8 27-21 68-33 l67-20 3 39 c2 22 1 47-2 54-8 21-69 17-94-6z"/><path d="M690 861 c0-45 3-81 8-81 12 1 70 84 77 111 6 23 3 27-22 33-15 4-36 9-45 12-16 5-18-3-18-75z"/></g><g fill="#141212"><path d="M925 1912 c-220-21-412-94-559-212-68-54-135-120-121-120 4 0-8-16-28-35-61-59-135-199-171-325-55-190-49-392 16-575 175-493 712-754 1204-585 397 137 665 532 640 945-27 452-351 814-796 888-116 20-146 23-185 19z m-205-412 c0-5-4-12-10-15-6-4-10-76-10-184 l0-178 112-32 113-32 17 23 c9 13 86 109 170 213 151 187 154 190 194 193 33 2 48-2 70-22 l29-24 3-260 3-260 31-11 c46-16 76-13 100 9 26 24 38 18 38-20 0-23 5-31 25-36 35-9 65-50 65-89 0-25-8-40-31-59-37-31-58-32-141-6-34 11-69 20-75 20-10 0-13-38-13-155 l0-155-95 0-95 0 0 184 c0 167-2 185-17 190-96 28-207 56-213 54-4-2-80-94-168-205-89-111-170-207-181-213-32-17-68-12-98 14 l-28 24-5 263-5 262-100 28 c-126 36-149 52-153 109-6 81 51 108 158 76 25-7 57-16 72-20 l27-6 3 157 3 158 69 3 c43 2 74 8 83 17 11 11 19 12 34 5 10-6 19-15 19-20z"/><path d="M1168 1077 c-27-33-48-63-48-67 0-5 21-15 48-22 l47-14 3 38 c2 21 2 57 0 81 l-3 42-47-58z"/><path d="M723 894 c-25-27-30-39-11-28 6 4 17-1 23-10 12-15 15-14 39 15 21 25 24 34 14 40-21 14-42 8-65-17z"/></g></svg>